HIERARCHY
ROOT joint_Root
{
	OFFSET 0.0 0.0 0.0
	CHANNELS 6 Xposition Yposition Zposition Zrotation Xrotation Yrotation 
	JOINT Hips
	{
		OFFSET 4.5925 91.4895 -427.239
		CHANNELS 6 Xposition Yposition Zposition Zrotation Xrotation Yrotation 
		JOINT Spine
		{
			OFFSET 15.7357 0.0 0.0
			CHANNELS 6 Xposition Yposition Zposition Zrotation Xrotation Yrotation 
			JOINT Chest
			{
				OFFSET 8.98455 -0.406207 0.0
				CHANNELS 6 Xposition Yposition Zposition Zrotation Xrotation Yrotation 
				JOINT Neck
				{
					OFFSET 16.3773 0.0 0.0
					CHANNELS 6 Xposition Yposition Zposition Zrotation Xrotation Yrotation 
					JOINT Head
					{
						OFFSET 6.45672 0.0 0.0
						CHANNELS 6 Xposition Yposition Zposition Zrotation Xrotation Yrotation 
						End Site
						{
							OFFSET 0.0 0.0 0.0
						}
					}
				}
				JOINT Shoulder_L
				{
					OFFSET 12.9942 -0.242716 4.98039
					CHANNELS 6 Xposition Yposition Zposition Zrotation Xrotation Yrotation 
					JOINT UpperArm_L
					{
						OFFSET 5.34809 0.0 0.0
						CHANNELS 6 Xposition Yposition Zposition Zrotation Xrotation Yrotation 
						JOINT LowerArm_L
						{
							OFFSET 24.3286 1.87007e-05 0.0
							CHANNELS 6 Xposition Yposition Zposition Zrotation Xrotation Yrotation 
							JOINT Hand_L
							{
								OFFSET 22.2916 0.0 0.0
								CHANNELS 6 Xposition Yposition Zposition Zrotation Xrotation Yrotation 
								End Site
								{
									OFFSET 0.0 0.0 0.0
								}
							}
						}
					}
				}
				JOINT Shoulder_R
				{
					OFFSET 12.9945 -0.242716 -4.98039
					CHANNELS 6 Xposition Yposition Zposition Zrotation Xrotation Yrotation 
					JOINT UpperArm_R
					{
						OFFSET -5.34813 0.0 0.0
						CHANNELS 6 Xposition Yposition Zposition Zrotation Xrotation Yrotation 
						JOINT LowerArm_R
						{
							OFFSET -24.3289 0.000322201 0.0
							CHANNELS 6 Xposition Yposition Zposition Zrotation Xrotation Yrotation 
							JOINT Hand_R
							{
								OFFSET -22.2915 -0.000108084 0.0
								CHANNELS 6 Xposition Yposition Zposition Zrotation Xrotation Yrotation 
								End Site
								{
									OFFSET 0.0 0.0 0.0
								}
							}
						}
					}
				}
			}
		}
		JOINT UpperLeg_L
		{
			OFFSET -2.19248 -6.46944 0.0
			CHANNELS 6 Xposition Yposition Zposition Zrotation Xrotation Yrotation 
			JOINT LowerLeg_L
			{
				OFFSET 39.0811 0.0 -1.23785e-05
				CHANNELS 6 Xposition Yposition Zposition Zrotation Xrotation Yrotation 
				JOINT Foot_L
				{
					OFFSET 40.9854 0.0 -1.26872e-05
					CHANNELS 6 Xposition Yposition Zposition Zrotation Xrotation Yrotation 
					JOINT Toes_L
					{
						OFFSET 11.7543 0.0 0.0
						CHANNELS 6 Xposition Yposition Zposition Zrotation Xrotation Yrotation 
						End Site
						{
							OFFSET 0.0 0.0 0.0
						}
					}
				}
			}
		}
		JOINT UpperLeg_R
		{
			OFFSET -2.19251 6.46944 0.0
			CHANNELS 6 Xposition Yposition Zposition Zrotation Xrotation Yrotation 
			JOINT LowerLeg_R
			{
				OFFSET -39.0811 -0.00228153 -0.0401928
				CHANNELS 6 Xposition Yposition Zposition Zrotation Xrotation Yrotation 
				JOINT Foot_R
				{
					OFFSET -40.9854 0.0 0.0
					CHANNELS 6 Xposition Yposition Zposition Zrotation Xrotation Yrotation 
					JOINT Toes_R
					{
						OFFSET -11.7543 0.0 0.0
						CHANNELS 6 Xposition Yposition Zposition Zrotation Xrotation Yrotation 
						End Site
						{
							OFFSET 0.0 0.0 0.0
						}
					}
				}
			}
		}
	}
}
MOTION
Frames:	4
Frame Time:	0.0333333
0.000000 0.000000 0.000000 0.000000 0.000000 -0.000000 -1.945770 91.084200 -4.310200 88.407100 -2.557260 12.680300 15.735700 0.000005 -0.000001 87.310200 75.685100 -88.929500 8.984550 -0.406207 -0.000000 20.817500 -1.494500 -2.975640 16.377300 -0.000001 -0.000001 8.902550 -4.489340 0.574606 6.456720 -0.000001 -0.000000 -11.843500 -2.916380 -3.947860 12.994200 -0.242716 4.980390 -91.283200 7.715650 -80.527900 5.348090 -0.000007 -0.000001 -54.365700 32.436400 -28.901800 24.328600 0.000019 0.000005 10.746200 24.486300 -24.602800 22.291600 -0.000001 0.000005 10.665000 5.255980 1.274050 12.994500 -0.242716 -4.980390 89.064800 6.081560 -81.240500 -5.348130 -0.000001 -0.000004 -37.085900 1.985010 -63.914400 -24.328900 0.000322 -0.000009 28.897300 -10.528800 -108.317000 -22.291500 -0.000108 -0.000004 36.418300 5.377820 -2.230030 -2.192480 -6.469440 -0.000000 -172.271000 -14.444200 -0.954770 39.081100 -0.000007 -0.000012 -0.109149 0.180355 31.182200 40.985400 -0.000006 -0.000013 0.576403 7.925930 -67.038500 11.754300 -0.000000 0.000003 -0.000241 -0.002168 -16.658900 -2.192510 6.469440 -0.000001 174.643000 24.974400 -178.524000 -39.081100 -0.002282 -0.040193 -0.148849 0.270369 29.369200 -40.985400 0.000008 0.000006 5.991840 19.113100 -68.055800 -11.754300 -0.000006 -0.000006 -0.001243 -0.018805 -17.337800
0.000000 0.000000 0.000000 0.000000 0.000000 -0.000000 -1.956250 91.078900 -4.297240 88.411400 -2.416700 12.681100 15.735700 0.000005 -0.000001 87.423000 75.684000 -89.055900 8.984550 -0.406207 -0.000000 20.822600 -1.441260 -3.012730 16.377300 -0.000001 -0.000001 8.900820 -4.386190 0.541485 6.456720 -0.000001 -0.000000 -11.884300 -2.843310 -3.945150 12.994200 -0.242716 4.980390 -91.285700 7.689800 -80.479000 5.348090 -0.000007 -0.000001 -54.448200 32.411200 -28.699100 24.328600 0.000019 0.000005 10.713300 24.452000 -24.563200 22.291600 -0.000001 0.000005 10.677800 5.256480 1.260760 12.994500 -0.242716 -4.980390 89.059700 6.106130 -81.228900 -5.348130 -0.000001 -0.000004 -38.252300 1.582720 -63.456800 -24.328900 0.000322 -0.000009 28.948500 -10.555200 -108.323000 -22.291500 -0.000108 -0.000004 36.400200 5.374510 -2.127970 -2.192480 -6.469440 -0.000000 -172.290000 -14.336700 -0.987047 39.081100 -0.000007 -0.000012 -0.110941 0.183152 31.204800 40.985400 -0.000006 -0.000013 0.582504 7.986420 -67.044000 11.754300 -0.000000 0.000003 -0.000241 -0.002166 -16.658800 -2.192510 6.469440 -0.000001 174.610000 25.047300 -178.502000 -39.081100 -0.002282 -0.040193 -0.150927 0.273782 29.394100 -40.985400 0.000008 0.000006 5.983720 19.067900 -68.089300 -11.754300 -0.000006 -0.000006 -0.001227 -0.018584 -17.328800
0.000000 0.000000 0.000000 0.000000 0.000000 -0.000000 -1.969070 91.078300 -4.270140 88.428200 -2.275620 12.688600 15.735700 0.000005 -0.000001 87.444400 75.684200 -89.095300 8.984550 -0.406207 -0.000000 20.822500 -1.432870 -3.050470 16.377300 -0.000001 -0.000001 8.929080 -4.320890 0.428930 6.456720 -0.000001 -0.000000 -11.873700 -2.735200 -3.911310 12.994200 -0.242716 4.980390 -91.298600 7.713680 -80.414200 5.348090 -0.000007 -0.000001 -54.464700 32.339700 -28.458600 24.328600 0.000019 0.000005 10.758000 24.555000 -24.570200 22.291600 -0.000001 0.000005 10.636900 5.253640 1.336400 12.994500 -0.242716 -4.980390 89.056500 6.136090 -81.241100 -5.348130 -0.000001 -0.000004 -40.428300 0.934609 -62.901000 -24.328900 0.000322 -0.000009 28.737800 -10.496200 -108.378000 -22.291500 -0.000108 -0.000004 36.592600 5.367610 -1.912790 -2.192480 -6.469440 -0.000000 -172.320000 -14.258000 -0.982274 39.081100 -0.000007 -0.000012 -0.109435 0.180730 31.195900 40.985400 -0.000006 -0.000013 0.586917 8.024540 -67.045700 11.754300 -0.000000 0.000003 -0.000222 -0.002022 -16.653600 -2.192510 6.469440 -0.000001 174.566000 25.138100 -178.459000 -39.081100 -0.002282 -0.040193 -0.149133 0.270530 29.400100 -40.985400 0.000008 0.000006 5.981670 19.027700 -68.119900 -11.754300 -0.000006 -0.000006 -0.001224 -0.018541 -17.327100
0.000000 0.000000 0.000000 0.000000 0.000000 -0.000000 -1.986670 91.082700 -4.262160 88.397100 -2.123460 12.677100 15.735700 0.000005 -0.000001 87.450300 75.695900 -89.108600 8.984550 -0.406207 -0.000000 20.799200 -1.429540 -3.066100 16.377300 -0.000001 -0.000001 8.966940 -4.246040 0.385821 6.456720 -0.000001 -0.000000 -11.851000 -2.708920 -3.921960 12.994200 -0.242716 4.980390 -91.306000 7.720350 -80.368500 5.348090 -0.000007 -0.000001 -54.537400 32.224800 -28.226900 24.328600 0.000019 0.000005 10.729600 24.696900 -24.394900 22.291600 -0.000001 0.000005 10.754600 5.256240 1.267080 12.994500 -0.242716 -4.980390 89.052200 6.171860 -81.251700 -5.348130 -0.000001 -0.000004 -43.505600 -0.022742 -62.192500 -24.328900 0.000322 -0.000009 28.585800 -10.469700 -108.443000 -22.291500 -0.000108 -0.000004 36.691400 5.363400 -1.784450 -2.192480 -6.469440 -0.000000 -172.308000 -14.134500 -1.013100 39.081100 -0.000007 -0.000012 -0.111516 0.184222 31.188100 40.985400 -0.000006 -0.000013 0.583789 8.069200 -67.034200 11.754300 -0.000000 0.000003 -0.000259 -0.002298 -16.663600 -2.192510 6.469440 -0.000001 174.583000 25.234900 -178.413000 -39.081100 -0.002282 -0.040193 -0.150052 0.272726 29.349300 -40.985400 0.000008 0.000006 5.963940 18.957600 -68.112100 -11.754300 -0.000006 -0.000006 -0.001198 -0.018186 -17.312700
